<?xml version="1.0" encoding="UTF-8" standalone="no"?>
<!DOCTYPE svg PUBLIC "-//W3C//DTD SVG 1.1//EN"
 "http://www.w3.org/Graphics/SVG/1.1/DTD/svg11.dtd">
<!-- Generated by graphviz version 14.1.2 (0)
 -->
<!-- Title: estado_riesgos_y_plan_aprobacion Pages: 1 -->
<svg width="1453pt" height="770pt"
 viewBox="0.00 0.00 1453.00 770.00" xmlns="http://www.w3.org/2000/svg" xmlns:xlink="http://www.w3.org/1999/xlink">
<g id="graph0" class="graph" transform="scale(1 1) rotate(0) translate(21.6 747.99)">
<title>estado_riesgos_y_plan_aprobacion</title>
<polygon fill="#ffffff" stroke="none" points="-21.6,21.6 -21.6,-747.99 1430.97,-747.99 1430.97,21.6 -21.6,21.6"/>
<text xml:space="preserve" text-anchor="middle" x="498.5" y="-701.49" font-family="DejaVu Sans" font-size="22.00" fill="#162433">04 · ESTADO DE RIESGOS Y PLAN DE APROBACIÓN</text>
<text xml:space="preserve" text-anchor="middle" x="498.5" y="-675.24" font-family="DejaVu Sans" font-size="22.00" fill="#162433">La decisión solicitada es continuar el desarrollo con condiciones; no autorizar producción</text>
<g id="clust1" class="cluster">
<title>cluster_riesgos</title>
<path fill="#ffffff" stroke="#6f7f8f" stroke-width="1.45" stroke-dasharray="5,2" d="M20,-396.32C20,-396.32 969,-396.32 969,-396.32 975,-396.32 981,-402.32 981,-408.32 981,-408.32 981,-565.73 981,-565.73 981,-571.73 975,-577.73 969,-577.73 969,-577.73 20,-577.73 20,-577.73 14,-577.73 8,-571.73 8,-565.73 8,-565.73 8,-408.32 8,-408.32 8,-402.32 14,-396.32 20,-396.32"/>
<text xml:space="preserve" text-anchor="middle" x="154.75" y="-562.33" font-family="DejaVu Sans" font-size="12.00" fill="#344454">REGISTRO RESUMIDO · 18 RIESGOS ABIERTOS</text>
</g>
<g id="clust3" class="cluster">
<title>cluster_plan</title>
<path fill="#ffffff" stroke="#465b70" stroke-width="1.55" stroke-dasharray="5,2" d="M21,-101.25C21,-101.25 776,-101.25 776,-101.25 782,-101.25 788,-107.25 788,-113.25 788,-113.25 788,-357.07 788,-357.07 788,-363.07 782,-369.07 776,-369.07 776,-369.07 21,-369.07 21,-369.07 15,-369.07 9,-363.07 9,-357.07 9,-357.07 9,-113.25 9,-113.25 9,-107.25 15,-101.25 21,-101.25"/>
<text xml:space="preserve" text-anchor="middle" x="211.62" y="-353.67" font-family="DejaVu Sans" font-size="12.00" fill="#283746">PUERTAS DE DECISIÓN · NO SE AVANZA POR MERO CALENDARIO</text>
</g>
<!-- propuesta -->
<g id="node1" class="node">
<title>propuesta</title>
<path fill="#eaf2fb" stroke="#2f6b9a" stroke-width="1.8" d="M729.59,-665.89C729.59,-665.89 242.41,-665.89 242.41,-665.89 236.41,-665.89 230.41,-659.89 230.41,-653.89 230.41,-653.89 230.41,-623.73 230.41,-623.73 230.41,-617.73 236.41,-611.73 242.41,-611.73 242.41,-611.73 729.59,-611.73 729.59,-611.73 735.59,-611.73 741.59,-617.73 741.59,-623.73 741.59,-623.73 741.59,-653.89 741.59,-653.89 741.59,-659.89 735.59,-665.89 729.59,-665.89"/>
<text xml:space="preserve" text-anchor="start" x="243.38" y="-648.26" font-family="DejaVu Sans" font-weight="bold" font-size="9.00" fill="#2f6b9a">DECISIÓN PROPUESTA AL COMITÉ</text>
<text xml:space="preserve" text-anchor="start" x="243.38" y="-633.56" font-family="DejaVu Sans" font-weight="bold" font-size="15.00" fill="#162433">Validación condicionada de la arquitectura de referencia</text>
<text xml:space="preserve" text-anchor="start" x="243.38" y="-623.31" font-family="DejaVu Sans" font-size="10.00" fill="#162433">Continuar solo con datos sintéticos, sin usuarios ni redes reales, y volver al Comité en cada puerta.</text>
</g>
<!-- criticos -->
<g id="node2" class="node">
<title>criticos</title>
<path fill="#fdebec" stroke="#b33a3a" stroke-width="1.8" d="M301.71,-520.48C301.71,-520.48 40.29,-520.48 40.29,-520.48 34.29,-520.48 28.29,-514.48 28.29,-508.48 28.29,-508.48 28.29,-443.32 28.29,-443.32 28.29,-437.32 34.29,-431.32 40.29,-431.32 40.29,-431.32 301.71,-431.32 301.71,-431.32 307.71,-431.32 313.71,-437.32 313.71,-443.32 313.71,-443.32 313.71,-508.48 313.71,-508.48 313.71,-514.48 307.71,-520.48 301.71,-520.48"/>
<text xml:space="preserve" text-anchor="start" x="41.25" y="-501.9" font-family="DejaVu Sans" font-weight="bold" font-size="10.00" fill="#b33a3a">5 RIESGOS CRÍTICOS · R&#45;01 A R&#45;05</text>
<text xml:space="preserve" text-anchor="start" x="41.25" y="-491.9" font-family="DejaVu Sans" font-size="10.00" fill="#162433">R&#45;01 · identidad, sesión y revocación productivas</text>
<text xml:space="preserve" text-anchor="start" x="41.25" y="-481.9" font-family="DejaVu Sans" font-size="10.00" fill="#162433">R&#45;02 · persistencia, concurrencia y recuperación</text>
<text xml:space="preserve" text-anchor="start" x="41.25" y="-471.9" font-family="DejaVu Sans" font-size="10.00" fill="#162433">R&#45;03 · circuito documental completo y homologado</text>
<text xml:space="preserve" text-anchor="start" x="41.25" y="-461.9" font-family="DejaVu Sans" font-size="10.00" fill="#162433">R&#45;04 · atestación y consumo atómico de autorización</text>
<text xml:space="preserve" text-anchor="start" x="41.25" y="-451.9" font-family="DejaVu Sans" font-size="10.00" fill="#162433">R&#45;05 · integración limpia, CI y artefacto reproducible</text>
<text xml:space="preserve" text-anchor="start" x="43.5" y="-442.85" font-family="DejaVu Sans" font-weight="bold" font-size="9.00" fill="#b33a3a">BLOQUEAN CUALQUIER INTEGRACIÓN O DATO REAL</text>
</g>
<!-- propuesta&#45;&gt;criticos -->
<!-- altos -->
<g id="node3" class="node">
<title>altos</title>
<path fill="#fff4d6" stroke="#b7791f" stroke-width="1.65" d="M610.71,-535.48C610.71,-535.48 361.29,-535.48 361.29,-535.48 355.29,-535.48 349.29,-529.48 349.29,-523.48 349.29,-523.48 349.29,-428.32 349.29,-428.32 349.29,-422.32 355.29,-416.32 361.29,-416.32 361.29,-416.32 610.71,-416.32 610.71,-416.32 616.71,-416.32 622.71,-422.32 622.71,-428.32 622.71,-428.32 622.71,-523.48 622.71,-523.48 622.71,-529.48 616.71,-535.48 610.71,-535.48"/>
<text xml:space="preserve" text-anchor="start" x="362.25" y="-516.9" font-family="DejaVu Sans" font-weight="bold" font-size="10.00" fill="#9a6317">8 RIESGOS ALTOS · R&#45;06 A R&#45;13</text>
<text xml:space="preserve" text-anchor="start" x="362.25" y="-506.9" font-family="DejaVu Sans" font-size="10.00" fill="#162433">R&#45;06 · zonas y Cronos no demostrados en red</text>
<text xml:space="preserve" text-anchor="start" x="362.25" y="-496.9" font-family="DejaVu Sans" font-size="10.00" fill="#162433">R&#45;07 · auditoría no durable ni independiente</text>
<text xml:space="preserve" text-anchor="start" x="362.25" y="-486.9" font-family="DejaVu Sans" font-size="10.00" fill="#162433">R&#45;08 · HSM/KMS, secretos y gobierno de claves</text>
<text xml:space="preserve" text-anchor="start" x="362.25" y="-476.9" font-family="DejaVu Sans" font-size="10.00" fill="#162433">R&#45;09 · continuidad, capacidad y recuperación</text>
<text xml:space="preserve" text-anchor="start" x="362.25" y="-466.9" font-family="DejaVu Sans" font-size="10.00" fill="#162433">R&#45;10 · privacidad, bases jurídicas, retención y EIPD</text>
<text xml:space="preserve" text-anchor="start" x="362.25" y="-456.9" font-family="DejaVu Sans" font-size="10.00" fill="#162433">R&#45;11 · firma, CSV, registro, notificación y ENI</text>
<text xml:space="preserve" text-anchor="start" x="362.25" y="-446.9" font-family="DejaVu Sans" font-size="10.00" fill="#162433">R&#45;12 · desarrollo seguro y cadena de suministro</text>
<text xml:space="preserve" text-anchor="start" x="362.25" y="-436.9" font-family="DejaVu Sans" font-size="10.00" fill="#162433">R&#45;13 · fuentes maestras y calidad de datos</text>
<text xml:space="preserve" text-anchor="start" x="372.38" y="-427.85" font-family="DejaVu Sans" font-weight="bold" font-size="9.00" fill="#9a6317">DEBEN CERRARSE ANTES DE UN PILOTO REAL</text>
</g>
<!-- propuesta&#45;&gt;altos -->
<!-- medios -->
<g id="node4" class="node">
<title>medios</title>
<path fill="#eaf2fb" stroke="#2f6b9a" stroke-width="1.55" d="M948.96,-520.48C948.96,-520.48 671.04,-520.48 671.04,-520.48 665.04,-520.48 659.04,-514.48 659.04,-508.48 659.04,-508.48 659.04,-443.32 659.04,-443.32 659.04,-437.32 665.04,-431.32 671.04,-431.32 671.04,-431.32 948.96,-431.32 948.96,-431.32 954.96,-431.32 960.96,-437.32 960.96,-443.32 960.96,-443.32 960.96,-508.48 960.96,-508.48 960.96,-514.48 954.96,-520.48 948.96,-520.48"/>
<text xml:space="preserve" text-anchor="start" x="672" y="-501.9" font-family="DejaVu Sans" font-weight="bold" font-size="10.00" fill="#2f6b9a">5 RIESGOS MEDIOS · R&#45;14 A R&#45;18</text>
<text xml:space="preserve" text-anchor="start" x="672" y="-491.9" font-family="DejaVu Sans" font-size="10.00" fill="#162433">R&#45;14 · hardening, WAF, límites y observabilidad</text>
<text xml:space="preserve" text-anchor="start" x="672" y="-481.9" font-family="DejaVu Sans" font-size="10.00" fill="#162433">R&#45;15 · accesibilidad de portal y documentos</text>
<text xml:space="preserve" text-anchor="start" x="672" y="-471.9" font-family="DejaVu Sans" font-size="10.00" fill="#162433">R&#45;16 · separación inequívoca demo / producción</text>
<text xml:space="preserve" text-anchor="start" x="672" y="-461.9" font-family="DejaVu Sans" font-size="10.00" fill="#162433">R&#45;17 · fallos y estados ambiguos de conectores</text>
<text xml:space="preserve" text-anchor="start" x="672" y="-451.9" font-family="DejaVu Sans" font-size="10.00" fill="#162433">R&#45;18 · convergencia Candidate/Bolsa con núcleo VEC</text>
<text xml:space="preserve" text-anchor="start" x="672" y="-442.85" font-family="DejaVu Sans" font-weight="bold" font-size="9.00" fill="#2f6b9a">REQUIEREN PLAN Y EVIDENCIA ANTES DE PRODUCCIÓN</text>
</g>
<!-- propuesta&#45;&gt;medios -->
<!-- desarrollo -->
<g id="node5" class="node">
<title>desarrollo</title>
<path fill="#fff4d6" stroke="#b7791f" stroke-width="1.7" d="M296.96,-324.82C296.96,-324.82 43.04,-324.82 43.04,-324.82 37.04,-324.82 31.04,-318.82 31.04,-312.82 31.04,-312.82 31.04,-266.66 31.04,-266.66 31.04,-260.66 37.04,-254.66 43.04,-254.66 43.04,-254.66 296.96,-254.66 296.96,-254.66 302.96,-254.66 308.96,-260.66 308.96,-266.66 308.96,-266.66 308.96,-312.82 308.96,-312.82 308.96,-318.82 302.96,-324.82 296.96,-324.82"/>
<text xml:space="preserve" text-anchor="start" x="44" y="-307.19" font-family="DejaVu Sans" font-weight="bold" font-size="9.00" fill="#9a6317">PARCIAL · APROBACIÓN CONDICIONADA</text>
<text xml:space="preserve" text-anchor="start" x="44" y="-293.44" font-family="DejaVu Sans" font-weight="bold" font-size="14.00" fill="#162433">DESARROLLO SINTÉTICO</text>
<text xml:space="preserve" text-anchor="start" x="44" y="-284.19" font-family="DejaVu Sans" font-weight="bold" font-size="9.00" fill="#162433">Puertas 0 y 1</text>
<text xml:space="preserve" text-anchor="start" x="110.75" y="-284.19" font-family="DejaVu Sans" font-size="9.00" fill="#162433"> · gobierno, alcance, ENS/riesgos,</text>
<text xml:space="preserve" text-anchor="start" x="44" y="-275.19" font-family="DejaVu Sans" font-size="9.00" fill="#162433">repositorio limpio, CI, revisión, SBOM y amenazas</text>
<text xml:space="preserve" text-anchor="start" x="44" y="-266.19" font-family="DejaVu Sans" font-weight="bold" font-size="9.00" fill="#162433">Permitido:</text>
<text xml:space="preserve" text-anchor="start" x="98" y="-266.19" font-family="DejaVu Sans" font-size="9.00" fill="#162433"> diseño y código sin datos ni usuarios reales</text>
</g>
<!-- propuesta&#45;&gt;desarrollo -->
<g id="edge9" class="edge">
<title>propuesta&#45;&gt;desarrollo</title>
<path fill="none" stroke="#667482" stroke-width="1.15" d="M712.2,-610.85C846.18,-594.87 990,-577.73 990,-577.73 990,-577.73 990,-396.32 990,-396.32 990,-396.32 444,-369.07 444,-369.07 444,-369.07 371.27,-348.28 300.76,-328.12"/>
<polygon fill="#667482" stroke="#667482" stroke-width="1.15" points="301.46,-325.7 293.85,-326.15 300.08,-330.55 301.46,-325.7"/>
<text xml:space="preserve" text-anchor="middle" x="1039.88" y="-472.97" font-family="DejaVu Sans" font-size="9.00" fill="#44515f">acuerdo condicionado</text>
</g>
<!-- criticos&#45;&gt;desarrollo -->
<!-- integracion -->
<g id="node6" class="node">
<title>integracion</title>
<path fill="#fdebec" stroke="#b33a3a" stroke-width="1.8" d="M754.46,-324.82C754.46,-324.82 473.54,-324.82 473.54,-324.82 467.54,-324.82 461.54,-318.82 461.54,-312.82 461.54,-312.82 461.54,-266.66 461.54,-266.66 461.54,-260.66 467.54,-254.66 473.54,-254.66 473.54,-254.66 754.46,-254.66 754.46,-254.66 760.46,-254.66 766.46,-260.66 766.46,-266.66 766.46,-266.66 766.46,-312.82 766.46,-312.82 766.46,-318.82 760.46,-324.82 754.46,-324.82"/>
<text xml:space="preserve" text-anchor="start" x="474.5" y="-307.19" font-family="DejaVu Sans" font-weight="bold" font-size="9.00" fill="#b33a3a">CERRADO</text>
<text xml:space="preserve" text-anchor="start" x="474.5" y="-293.44" font-family="DejaVu Sans" font-weight="bold" font-size="14.00" fill="#162433">INTEGRACIÓN CONTROLADA</text>
<text xml:space="preserve" text-anchor="start" x="474.5" y="-284.19" font-family="DejaVu Sans" font-weight="bold" font-size="9.00" fill="#162433">Puerta 2</text>
<text xml:space="preserve" text-anchor="start" x="518" y="-284.19" font-family="DejaVu Sans" font-size="9.00" fill="#162433"> · IdP y sesiones separados, perfil único,</text>
<text xml:space="preserve" text-anchor="start" x="474.5" y="-275.19" font-family="DejaVu Sans" font-size="9.00" fill="#162433">PDP/atestación, PostgreSQL/RLS y no alcanzabilidad</text>
<text xml:space="preserve" text-anchor="start" x="474.5" y="-266.19" font-family="DejaVu Sans" font-weight="bold" font-size="9.00" fill="#162433">Tras aprobar:</text>
<text xml:space="preserve" text-anchor="start" x="542.75" y="-266.19" font-family="DejaVu Sans" font-size="9.00" fill="#162433"> identidades de prueba; sin expedientes reales</text>
</g>
<!-- criticos&#45;&gt;integracion -->
<g id="edge10" class="edge">
<title>criticos&#45;&gt;integracion</title>
<path fill="none" stroke="#b33a3a" stroke-width="1.5" stroke-dasharray="5,2" d="M261.29,-430.56C297.58,-412.73 331,-396.32 331,-396.32 331,-396.32 430.72,-359.12 511.77,-328.88"/>
<polygon fill="#b33a3a" stroke="#b33a3a" stroke-width="1.5" points="512.56,-331.27 518.42,-326.4 510.8,-326.55 512.56,-331.27"/>
<text xml:space="preserve" text-anchor="middle" x="417.07" y="-379.77" font-family="DejaVu Sans" font-size="9.00" fill="#44515f">bloqueo absoluto</text>
</g>
<!-- altos&#45;&gt;integracion -->
<!-- piloto -->
<g id="node7" class="node">
<title>piloto</title>
<path fill="#fdebec" stroke="#b33a3a" stroke-width="1.8" d="M350.71,-193.41C350.71,-193.41 95.29,-193.41 95.29,-193.41 89.29,-193.41 83.29,-187.41 83.29,-181.41 83.29,-181.41 83.29,-135.25 83.29,-135.25 83.29,-129.25 89.29,-123.25 95.29,-123.25 95.29,-123.25 350.71,-123.25 350.71,-123.25 356.71,-123.25 362.71,-129.25 362.71,-135.25 362.71,-135.25 362.71,-181.41 362.71,-181.41 362.71,-187.41 356.71,-193.41 350.71,-193.41"/>
<text xml:space="preserve" text-anchor="start" x="96.25" y="-175.78" font-family="DejaVu Sans" font-weight="bold" font-size="9.00" fill="#b33a3a">CERRADO</text>
<text xml:space="preserve" text-anchor="start" x="96.25" y="-162.03" font-family="DejaVu Sans" font-weight="bold" font-size="14.00" fill="#162433">PILOTO LIMITADO</text>
<text xml:space="preserve" text-anchor="start" x="96.25" y="-152.78" font-family="DejaVu Sans" font-weight="bold" font-size="9.00" fill="#162433">Puertas 3 y 4</text>
<text xml:space="preserve" text-anchor="start" x="163" y="-152.78" font-family="DejaVu Sans" font-size="9.00" fill="#162433"> · datos/documentos, claves, auditoría,</text>
<text xml:space="preserve" text-anchor="start" x="96.25" y="-143.78" font-family="DejaVu Sans" font-size="9.00" fill="#162433">firma/ENI, privacidad, SIEM, continuidad y accesibilidad</text>
<text xml:space="preserve" text-anchor="start" x="120.25" y="-134.78" font-family="DejaVu Sans" font-weight="bold" font-size="9.00" fill="#162433">Tras aprobar:</text>
<text xml:space="preserve" text-anchor="start" x="188.5" y="-134.78" font-family="DejaVu Sans" font-size="9.00" fill="#162433"> solicitar autorización de piloto</text>
</g>
<!-- altos&#45;&gt;piloto -->
<g id="edge11" class="edge">
<title>altos&#45;&gt;piloto</title>
<path fill="none" stroke="#b7791f" stroke-width="1.4" stroke-dasharray="5,2" d="M603.08,-415.54C624.9,-404.48 641,-396.32 641,-396.32 641,-396.32 784,-369.07 784,-369.07 784,-369.07 784,-254.66 784,-254.66 784,-254.66 538.51,-212.94 372.32,-184.7"/>
<polygon fill="#b7791f" stroke="#b7791f" stroke-width="1.4" points="373.09,-182.28 365.57,-183.56 372.24,-187.25 373.09,-182.28"/>
<text xml:space="preserve" text-anchor="middle" x="821.88" y="-286.81" font-family="DejaVu Sans" font-size="9.00" fill="#44515f">cierre obligatorio</text>
</g>
<!-- produccion -->
<g id="node8" class="node">
<title>produccion</title>
<path fill="#fdebec" stroke="#b33a3a" stroke-width="1.9" d="M753.84,-193.41C753.84,-193.41 526.16,-193.41 526.16,-193.41 520.16,-193.41 514.16,-187.41 514.16,-181.41 514.16,-181.41 514.16,-135.25 514.16,-135.25 514.16,-129.25 520.16,-123.25 526.16,-123.25 526.16,-123.25 753.84,-123.25 753.84,-123.25 759.84,-123.25 765.84,-129.25 765.84,-135.25 765.84,-135.25 765.84,-181.41 765.84,-181.41 765.84,-187.41 759.84,-193.41 753.84,-193.41"/>
<text xml:space="preserve" text-anchor="start" x="527.12" y="-175.78" font-family="DejaVu Sans" font-weight="bold" font-size="9.00" fill="#b33a3a">CERRADO · SIN EXCEPCIÓN IMPLÍCITA</text>
<text xml:space="preserve" text-anchor="start" x="527.12" y="-162.03" font-family="DejaVu Sans" font-weight="bold" font-size="14.00" fill="#162433">PRODUCCIÓN</text>
<text xml:space="preserve" text-anchor="start" x="527.12" y="-152.78" font-family="DejaVu Sans" font-weight="bold" font-size="9.00" fill="#162433">Puerta 5</text>
<text xml:space="preserve" text-anchor="start" x="570.62" y="-152.78" font-family="DejaVu Sans" font-size="9.00" fill="#162433"> · revisión independiente, pentest, ENS,</text>
<text xml:space="preserve" text-anchor="start" x="527.12" y="-143.78" font-family="DejaVu Sans" font-size="9.00" fill="#162433">validaciones jurídica/DPD/Archivo y riesgo residual</text>
<text xml:space="preserve" text-anchor="start" x="545.12" y="-134.78" font-family="DejaVu Sans" font-weight="bold" font-size="9.00" fill="#162433">Única salida:</text>
<text xml:space="preserve" text-anchor="start" x="610.38" y="-134.78" font-family="DejaVu Sans" font-size="9.00" fill="#162433"> resolución formal separada</text>
</g>
<!-- medios&#45;&gt;produccion -->
<g id="edge12" class="edge">
<title>medios&#45;&gt;produccion</title>
<path fill="none" stroke="#2f6b9a" stroke-width="1.3" stroke-dasharray="5,2" d="M857.27,-430.63C888.23,-401.63 923,-369.07 923,-369.07 923,-369.07 923,-254.66 923,-254.66 923,-254.66 831.34,-223.78 752.35,-197.18"/>
<polygon fill="#2f6b9a" stroke="#2f6b9a" stroke-width="1.3" points="753.26,-194.82 745.64,-194.91 751.66,-199.6 753.26,-194.82"/>
<text xml:space="preserve" text-anchor="middle" x="960.88" y="-286.81" font-family="DejaVu Sans" font-size="9.00" fill="#44515f">plan + evidencia</text>
</g>
<!-- desarrollo&#45;&gt;integracion -->
<g id="edge1" class="edge">
<title>desarrollo&#45;&gt;integracion</title>
<path fill="none" stroke="#7a8794" stroke-width="1.15" d="M309.57,-289.74C354.81,-289.74 405.37,-289.74 452.09,-289.74"/>
<polygon fill="#7a8794" stroke="#7a8794" stroke-width="1.15" points="451.83,-292.26 459.03,-289.74 451.83,-287.22 451.83,-292.26"/>
<text xml:space="preserve" text-anchor="middle" x="385.25" y="-295.44" font-family="DejaVu Sans" font-size="9.00" fill="#44515f">evidencias 0–2 aprobadas</text>
</g>
<!-- integracion&#45;&gt;piloto -->
<g id="edge2" class="edge">
<title>integracion&#45;&gt;piloto</title>
<path fill="none" stroke="#7a8794" stroke-width="1.15" d="M466.05,-253.78C412.07,-241.02 364,-229.66 364,-229.66 364,-229.66 333.55,-214.47 300.95,-198.21"/>
<polygon fill="#7a8794" stroke="#7a8794" stroke-width="1.15" points="302.21,-196.02 294.64,-195.07 299.96,-200.53 302.21,-196.02"/>
<text xml:space="preserve" text-anchor="middle" x="422.5" y="-221.11" font-family="DejaVu Sans" font-size="9.00" fill="#44515f">evidencias 3–4 aprobadas</text>
</g>
<!-- piloto&#45;&gt;produccion -->
<g id="edge3" class="edge">
<title>piloto&#45;&gt;produccion</title>
<path fill="none" stroke="#7a8794" stroke-width="1.15" d="M363.6,-158.33C409.13,-158.33 459.52,-158.33 504.67,-158.33"/>
<polygon fill="#7a8794" stroke="#7a8794" stroke-width="1.15" points="504.39,-160.85 511.59,-158.33 504.39,-155.81 504.39,-160.85"/>
<text xml:space="preserve" text-anchor="middle" x="438.44" y="-164.03" font-family="DejaVu Sans" font-size="9.00" fill="#44515f">evaluación 5 + resolución</text>
</g>
<!-- responsables -->
<g id="node10" class="node">
<title>responsables</title>
<path fill="#f5f7fa" stroke="none" stroke-width="1.35" d="M374.62,-67.25C374.62,-67.25 71.38,-67.25 71.38,-67.25 65.38,-67.25 59.38,-61.25 59.38,-55.25 59.38,-55.25 59.38,-12 59.38,-12 59.38,-6 65.38,0 71.38,0 71.38,0 374.62,0 374.62,0 380.62,0 386.62,-6 386.62,-12 386.62,-12 386.62,-55.25 386.62,-55.25 386.62,-61.25 380.62,-67.25 374.62,-67.25"/>
<polygon fill="#f5f7fa" stroke="none" points="59.38,-38.5 59.38,-67.25 386.62,-67.25 386.62,-38.5 59.38,-38.5"/>
<polygon fill="none" stroke="#aab4bf" points="59.38,-38.5 59.38,-67.25 386.62,-67.25 386.62,-38.5 59.38,-38.5"/>
<text xml:space="preserve" text-anchor="start" x="165.62" y="-50.75" font-family="DejaVu Sans" font-weight="bold" font-size="10.00" fill="#162433">CADA PUERTA EXIGE</text>
<polygon fill="none" stroke="#aab4bf" points="59.38,0 59.38,-38.5 386.62,-38.5 386.62,0 59.38,0"/>
<text xml:space="preserve" text-anchor="start" x="67.38" y="-21.95" font-family="DejaVu Sans" font-size="9.00" fill="#162433">propietario nominal · evidencia reproducible · revisión independiente</text>
<text xml:space="preserve" text-anchor="start" x="89.88" y="-10.7" font-family="DejaVu Sans" font-size="9.00" fill="#162433">riesgo residual documentado · decisión y fecha registradas</text>
</g>
<!-- piloto&#45;&gt;responsables -->
<!-- suspension -->
<g id="node9" class="node">
<title>suspension</title>
<path fill="#fdebec" stroke="#b33a3a" stroke-width="1.35" d="M844.59,-61.7C844.59,-61.7 435.41,-61.7 435.41,-61.7 429.41,-61.7 423.41,-55.7 423.41,-49.7 423.41,-49.7 423.41,-17.55 423.41,-17.55 423.41,-11.55 429.41,-5.55 435.41,-5.55 435.41,-5.55 844.59,-5.55 844.59,-5.55 850.59,-5.55 856.59,-11.55 856.59,-17.55 856.59,-17.55 856.59,-49.7 856.59,-49.7 856.59,-55.7 850.59,-61.7 844.59,-61.7"/>
<text xml:space="preserve" text-anchor="start" x="436.38" y="-44.08" font-family="DejaVu Sans" font-weight="bold" font-size="9.00" fill="#b33a3a">SUSPENSIÓN INMEDIATA</text>
<text xml:space="preserve" text-anchor="start" x="436.38" y="-35.08" font-family="DejaVu Sans" font-size="9.00" fill="#162433">dato real sin autorización · ruta interna publicada · fake/cabeceras en entorno compartido</text>
<text xml:space="preserve" text-anchor="start" x="436.38" y="-26.08" font-family="DejaVu Sans" font-size="9.00" fill="#162433">controles desactivados · memoria/fichero productivo · documento sin cuarentena</text>
<text xml:space="preserve" text-anchor="start" x="502" y="-17.08" font-family="DejaVu Sans" font-size="9.00" fill="#162433">efecto sin autoría reconstruible · hallazgo crítico sin contener</text>
</g>
<!-- produccion&#45;&gt;suspension -->
<!-- produccion&#45;&gt;suspension -->
<g id="edge15" class="edge">
<title>produccion&#45;&gt;suspension</title>
<path fill="none" stroke="#b33a3a" stroke-width="1.15" stroke-dasharray="5,2" d="M652.31,-122.5C654.02,-104.56 653.89,-82.88 651.9,-65.55"/>
<polygon fill="#b33a3a" stroke="#b33a3a" stroke-width="1.15" points="647.99,-63.3 655.14,-62.41 655.32,-63.84 648.17,-64.72 647.99,-63.3"/>
<polyline fill="none" stroke="#b33a3a" stroke-width="1.15" points="651.48,-62.14 651.92,-65.71"/>
</g>
<!-- leyenda -->
<g id="node11" class="node">
<title>leyenda</title>
<path fill="#f5f7fa" stroke="none" stroke-width="1.35" d="M1400.46,-47C1400.46,-47 901.54,-47 901.54,-47 897.08,-47 892.62,-42.54 892.62,-38.08 892.62,-38.08 892.62,-29.17 892.62,-29.17 892.62,-24.71 897.08,-20.25 901.54,-20.25 901.54,-20.25 1400.46,-20.25 1400.46,-20.25 1404.92,-20.25 1409.38,-24.71 1409.38,-29.17 1409.38,-29.17 1409.38,-38.08 1409.38,-38.08 1409.38,-42.54 1404.92,-47 1400.46,-47"/>
<polygon fill="#fff4d6" stroke="none" points="892.62,-20.25 892.62,-47 1052.12,-47 1052.12,-20.25 892.62,-20.25"/>
<polygon fill="none" stroke="#cbd2d9" points="892.62,-20.25 892.62,-47 1052.12,-47 1052.12,-20.25 892.62,-20.25"/>
<text xml:space="preserve" text-anchor="start" x="899.62" y="-31.5" font-family="DejaVu Sans" font-weight="bold" font-size="10.00" fill="#9a6317">PARCIAL / CONDICIONADO</text>
<polygon fill="#eaf2fb" stroke="none" points="1052.12,-20.25 1052.12,-47 1256.62,-47 1256.62,-20.25 1052.12,-20.25"/>
<polygon fill="none" stroke="#cbd2d9" points="1052.12,-20.25 1052.12,-47 1256.62,-47 1256.62,-20.25 1052.12,-20.25"/>
<text xml:space="preserve" text-anchor="start" x="1059.12" y="-31.5" font-family="DejaVu Sans" font-weight="bold" font-size="10.00" fill="#2f6b9a">OBJETIVO / EVIDENCIA PENDIENTE</text>
<polygon fill="#fdebec" stroke="none" points="1256.62,-20.25 1256.62,-47 1409.38,-47 1409.38,-20.25 1256.62,-20.25"/>
<polygon fill="none" stroke="#cbd2d9" points="1256.62,-20.25 1256.62,-47 1409.38,-47 1409.38,-20.25 1256.62,-20.25"/>
<text xml:space="preserve" text-anchor="start" x="1263.62" y="-31.5" font-family="DejaVu Sans" font-weight="bold" font-size="10.00" fill="#b33a3a">CERRADO / BLOQUEANTE</text>
</g>
</g>
</svg>
